<svg width="38" height="56" viewBox="0 0 38 56" fill="none" xmlns="http://www.w3.org/2000/svg">
<g id="Group 69">
<g id="surface1">
<path id="Vector" d="M36.5584 23.9694C35.353 22.8129 33.6459 22.4427 32.2087 23.0261C31.8236 23.1826 31.466 23.4021 31.1456 23.6786C30.3286 24.3841 28.5145 26.5016 27.077 28.5974V12.4429C27.077 11.0698 26.5961 9.72771 25.7575 8.76041C24.9251 7.80025 23.8316 7.2824 22.6841 7.30757C22.1631 7.31849 21.6639 7.43976 21.2026 7.65169V6.0738C21.2026 4.57942 20.6791 3.11861 19.7658 2.06528C18.8608 1.02119 17.6764 0.458436 16.4238 0.485294C13.9264 0.536072 11.8875 2.91844 11.8127 5.83082C11.2717 5.54294 10.6842 5.38137 10.076 5.35997C8.80724 5.31633 7.55068 5.89251 6.62954 6.94206C5.72735 7.96979 5.2303 9.32652 5.2303 10.7584L5.22709 12.2884C4.83768 12.1382 4.42252 12.0559 3.99091 12.0559C1.81285 12.0559 0.0410156 14.1353 0.0410156 16.691L0.042446 40.1739L0.0456642 40.2851C0.227676 43.367 0.777285 46.0058 1.67983 48.1284C2.52588 50.1184 3.70627 51.7206 5.18811 52.8906C8.10422 55.1936 11.7065 55.4891 14.519 55.4891C20.0419 55.4891 25.0105 52.2666 27.4954 47.0763C27.7976 46.5047 28.5939 45.0351 29.4539 43.4501C30.2914 41.9058 31.0705 40.4827 31.7575 39.2271C32.1351 38.5368 32.4787 37.909 32.7769 37.3618C33.888 35.3227 35.0719 33.3457 36.2963 31.4854C36.7504 30.7955 36.8903 30.6083 36.9221 30.5672C37.4953 29.8332 37.8565 28.9348 37.9666 27.9683C38.14 26.4521 37.6265 24.9942 36.5584 23.9694ZM35.2418 27.5403C35.2064 27.8491 35.0866 28.142 34.8953 28.3871C34.7955 28.5151 34.6171 28.7585 34.1208 29.513C32.8467 31.4485 31.6152 33.5043 30.4605 35.6236C30.163 36.1696 29.8208 36.7948 29.4439 37.4835C28.7555 38.7416 27.9753 40.168 27.1346 41.7174C26.2546 43.3397 25.44 44.8425 25.1418 45.4078L25.1107 45.4699C23.1164 49.6597 19.0582 52.2624 14.5193 52.2624C12.0974 52.2624 9.02215 52.0295 6.72323 50.214C4.37746 48.3617 3.09158 45.059 2.79193 40.1172L2.79049 16.6914C2.79049 15.9146 3.32902 15.2826 3.99091 15.2826C4.65674 15.2826 5.19848 15.9146 5.19848 16.6914V25.4793C5.19848 25.5054 5.20098 25.5305 5.2017 25.5566C5.20313 25.5851 5.20313 25.614 5.20563 25.6426C5.20778 25.6682 5.21207 25.6929 5.21529 25.7181C5.21886 25.7462 5.22136 25.7748 5.22601 25.8029C5.23066 25.8281 5.2371 25.8528 5.24246 25.8776C5.24818 25.904 5.25283 25.9313 5.25998 25.9573C5.26642 25.9825 5.275 26.0068 5.28287 26.0312C5.29038 26.0559 5.29717 26.0811 5.30611 26.1055C5.31469 26.1298 5.32507 26.1529 5.33472 26.1764C5.34437 26.1999 5.35331 26.2238 5.36368 26.2469C5.37405 26.2695 5.38657 26.2914 5.39801 26.3136C5.40946 26.3359 5.42018 26.3585 5.43234 26.3799C5.44486 26.4013 5.4588 26.4215 5.47203 26.442C5.48526 26.463 5.49742 26.4844 5.51137 26.5041C5.52531 26.5239 5.54069 26.5419 5.55499 26.5608C5.57001 26.5801 5.58431 26.6007 5.60005 26.6191C5.61543 26.6367 5.63152 26.6527 5.64761 26.6699C5.66406 26.6875 5.68015 26.7064 5.69767 26.7232C5.71412 26.7391 5.73164 26.7534 5.7488 26.7685C5.76704 26.7845 5.78456 26.8012 5.80316 26.8164C5.82068 26.8302 5.83927 26.842 5.85715 26.8545C5.87682 26.8688 5.89613 26.8839 5.91651 26.8973C5.93511 26.9091 5.95477 26.9187 5.97373 26.9297C5.99447 26.9418 6.01521 26.9544 6.03666 26.9653C6.05633 26.9754 6.07743 26.983 6.09745 26.9918C6.11926 27.001 6.14072 27.0115 6.16289 27.0199C6.18399 27.0274 6.20616 27.0329 6.22761 27.0396C6.25014 27.0463 6.27195 27.0543 6.29448 27.0597C6.31737 27.0652 6.34025 27.0681 6.36314 27.0723C6.38602 27.0761 6.40819 27.0816 6.43108 27.0845C6.45396 27.087 6.47756 27.0874 6.50081 27.0887C6.52369 27.09 6.54658 27.0929 6.56982 27.0929C6.5709 27.0929 6.57233 27.0929 6.5734 27.0929C6.62096 27.0929 6.6678 27.09 6.71393 27.0845C6.73395 27.0824 6.75362 27.0774 6.77365 27.074C6.79904 27.0698 6.82514 27.0665 6.85017 27.0602C6.87663 27.0539 6.90202 27.0451 6.92777 27.0371C6.94565 27.0312 6.96424 27.027 6.98176 27.0207C7.01037 27.0102 7.03826 26.9972 7.06615 26.9846C7.07974 26.9783 7.0944 26.9733 7.10799 26.9666C7.13588 26.9527 7.16234 26.9364 7.18916 26.9208C7.20203 26.9133 7.21527 26.907 7.22814 26.899C7.25317 26.8831 7.27677 26.8646 7.30073 26.847C7.31432 26.8373 7.32826 26.8285 7.34114 26.818C7.36331 26.8008 7.3844 26.7811 7.4055 26.7618C7.41945 26.7496 7.43375 26.7383 7.44698 26.7253C7.46665 26.7068 7.48453 26.6858 7.50312 26.6657C7.51707 26.651 7.53137 26.6367 7.54496 26.6216C7.56212 26.6015 7.5775 26.5797 7.59359 26.5587C7.60682 26.5415 7.62113 26.5247 7.63364 26.5071C7.64794 26.4865 7.66082 26.4647 7.67441 26.4433C7.68728 26.4231 7.70087 26.4038 7.71267 26.3829C7.72518 26.3615 7.73555 26.3392 7.747 26.317C7.75844 26.2947 7.77095 26.2729 7.78168 26.2502C7.79205 26.2276 7.80063 26.2041 7.81029 26.181C7.81994 26.1571 7.83067 26.1336 7.83961 26.1092C7.84819 26.0857 7.85463 26.061 7.86214 26.0371C7.87036 26.0119 7.87894 25.9871 7.8861 25.9611C7.89253 25.9363 7.89718 25.9112 7.90255 25.886C7.90827 25.8595 7.91506 25.8335 7.92007 25.8067C7.92436 25.7815 7.92686 25.7551 7.93008 25.729C7.93401 25.7018 7.9383 25.6745 7.94081 25.6468C7.94331 25.6208 7.94331 25.5939 7.94438 25.5675C7.94581 25.5394 7.94832 25.5121 7.94832 25.484L7.98014 10.7626C7.98014 10.2069 8.18075 9.67231 8.54477 9.25728C8.93597 8.81203 9.4652 8.56611 9.99478 8.58541C10.9867 8.62025 11.7938 9.63287 11.7938 10.8452L11.8095 25.3942C11.8095 25.4235 11.812 25.4521 11.8135 25.4806C11.8145 25.5062 11.8145 25.5326 11.8167 25.5578C11.8192 25.588 11.8242 25.617 11.8281 25.6464C11.8313 25.6703 11.8335 25.6946 11.8374 25.7181C11.8431 25.75 11.851 25.7811 11.8582 25.8121C11.8628 25.8323 11.8664 25.8528 11.8714 25.8726C11.8803 25.9061 11.8918 25.9389 11.9025 25.9716C11.9079 25.988 11.9118 26.0047 11.9175 26.0207C11.9304 26.0555 11.9451 26.0895 11.9597 26.1231C11.9654 26.1357 11.9697 26.1491 11.9755 26.1613C11.9915 26.1961 12.0098 26.2293 12.0277 26.262C12.0334 26.2729 12.0384 26.2838 12.0445 26.2943C12.0634 26.3275 12.0842 26.3585 12.1049 26.3896C12.1113 26.3992 12.1171 26.4093 12.1235 26.4185C12.1467 26.4517 12.1718 26.4827 12.1972 26.5134C12.2025 26.5201 12.2068 26.5268 12.2122 26.5331C12.2383 26.5637 12.2662 26.5923 12.2944 26.6204C12.2998 26.6258 12.3044 26.6317 12.3098 26.6372C12.338 26.6644 12.3674 26.6892 12.397 26.7135C12.4035 26.719 12.4092 26.7249 12.4156 26.7299C12.4457 26.7538 12.4771 26.7752 12.5086 26.7962C12.5154 26.8008 12.5218 26.8063 12.529 26.8109C12.5619 26.8315 12.5959 26.8499 12.6302 26.868C12.6366 26.8713 12.6427 26.8755 12.6491 26.8789C12.6842 26.8961 12.7203 26.9108 12.7568 26.925C12.7632 26.9271 12.7689 26.9305 12.7754 26.933C12.8115 26.946 12.8483 26.9565 12.8851 26.9662C12.8927 26.9678 12.8998 26.9708 12.9073 26.9729C12.9967 26.9943 13.0893 27.0056 13.1841 27.0056C13.1848 27.0056 13.1855 27.0056 13.1862 27.0056C13.2102 27.0056 13.2338 27.0027 13.2574 27.0014C13.2803 26.9997 13.3032 26.9997 13.3257 26.9972C13.3507 26.9939 13.3747 26.9884 13.3994 26.9838C13.4201 26.98 13.4416 26.9775 13.4623 26.9725C13.487 26.9666 13.5109 26.9582 13.5352 26.9506C13.5549 26.9443 13.5746 26.9397 13.5939 26.9326C13.6186 26.9238 13.6422 26.9125 13.6661 26.9015C13.684 26.8936 13.7026 26.8873 13.7201 26.8785C13.7448 26.8659 13.7687 26.8512 13.7927 26.8373C13.8084 26.8281 13.8249 26.8201 13.8403 26.8105C13.8639 26.7954 13.8864 26.7777 13.9093 26.7614C13.9239 26.7505 13.9393 26.7408 13.9536 26.7295C13.9754 26.7123 13.9958 26.693 14.0166 26.6741C14.0309 26.6615 14.0455 26.6497 14.0595 26.6363C14.0791 26.6174 14.0977 26.596 14.1167 26.5755C14.1299 26.5612 14.1439 26.5474 14.1571 26.5322C14.1746 26.5113 14.1911 26.4886 14.2079 26.4668C14.2204 26.4504 14.2336 26.4349 14.2458 26.4177C14.2608 26.3959 14.2744 26.3728 14.2883 26.3505C14.3005 26.3312 14.3133 26.3128 14.3248 26.2935C14.3377 26.2712 14.3484 26.2477 14.3602 26.2246C14.3713 26.2032 14.3834 26.1823 14.3934 26.1604C14.4042 26.1374 14.4128 26.113 14.4224 26.0895C14.4321 26.066 14.4428 26.0434 14.4514 26.019C14.4596 25.9959 14.4664 25.9716 14.4735 25.9477C14.4818 25.9221 14.4907 25.8969 14.4975 25.8709C14.5039 25.8457 14.5086 25.8201 14.5143 25.7945C14.52 25.7685 14.5268 25.7429 14.5311 25.7164C14.5358 25.69 14.5383 25.6627 14.5418 25.6363C14.5451 25.6094 14.5497 25.583 14.5519 25.5561C14.5544 25.5289 14.5544 25.5012 14.5554 25.4735C14.5569 25.4462 14.559 25.4198 14.559 25.3921V5.99658C14.559 4.75777 15.4172 3.73298 16.4717 3.71158C16.9806 3.70318 17.464 3.93399 17.8391 4.36665C18.2296 4.81694 18.4535 5.43928 18.4535 6.0738V25.481C18.4535 25.5104 18.456 25.5389 18.4574 25.5679C18.4585 25.5935 18.4585 25.6195 18.4606 25.6451C18.4631 25.6736 18.4681 25.7013 18.4717 25.7295C18.4753 25.7551 18.4774 25.7807 18.4817 25.8054C18.4867 25.8335 18.4939 25.8608 18.5 25.8885C18.5053 25.9124 18.5093 25.9363 18.5157 25.9598C18.5236 25.9896 18.5336 26.0186 18.5429 26.0476C18.5493 26.0677 18.5547 26.0883 18.5618 26.108C18.5729 26.1382 18.5858 26.1672 18.5983 26.1965C18.6055 26.2137 18.6119 26.2318 18.6198 26.249C18.6333 26.2788 18.6491 26.3069 18.6645 26.3354C18.6727 26.3505 18.6798 26.3669 18.6888 26.382C18.7052 26.4105 18.7235 26.4378 18.7417 26.4651C18.7506 26.4785 18.7585 26.4928 18.7678 26.5058C18.7878 26.5348 18.81 26.5616 18.8318 26.5889C18.8404 26.599 18.8479 26.6103 18.8565 26.6204C18.879 26.6472 18.9033 26.6716 18.9276 26.6963C18.9366 26.7056 18.9448 26.7156 18.9541 26.7244C18.9813 26.7509 19.0099 26.7748 19.0385 26.7987C19.0456 26.8046 19.0524 26.8113 19.0599 26.8176C19.0907 26.842 19.1229 26.8642 19.1554 26.8856C19.1615 26.8894 19.1669 26.8944 19.1729 26.8982C19.2087 26.9208 19.2452 26.941 19.2827 26.9603C19.2863 26.962 19.2895 26.9645 19.2931 26.9662C19.3321 26.9855 19.3721 27.0023 19.4129 27.0174C19.415 27.0186 19.4172 27.0195 19.4197 27.0203C19.5051 27.0518 19.5942 27.0732 19.6861 27.0845C19.6868 27.0845 19.6872 27.0845 19.6879 27.0845C19.734 27.09 19.7808 27.0929 19.8284 27.0929C19.8288 27.0929 19.8291 27.0929 19.8298 27.0929C19.8541 27.0929 19.8781 27.09 19.9024 27.0887C19.9249 27.087 19.9475 27.087 19.9696 27.0845C19.995 27.0816 20.0197 27.0757 20.0447 27.0711C20.0651 27.0673 20.0859 27.0648 20.1062 27.0597C20.1331 27.0535 20.1588 27.0442 20.1849 27.0362C20.2024 27.0308 20.2207 27.0266 20.2378 27.0203C20.2657 27.0098 20.2925 26.9972 20.3197 26.9851C20.3344 26.9783 20.3494 26.9729 20.3641 26.9657C20.3916 26.9519 20.4181 26.936 20.4449 26.92C20.4578 26.9125 20.4713 26.9062 20.4842 26.8978C20.5103 26.881 20.5353 26.8621 20.5607 26.8432C20.5729 26.8344 20.5854 26.8264 20.5976 26.8168C20.6233 26.7966 20.6473 26.774 20.6716 26.7517C20.682 26.7425 20.693 26.7337 20.7034 26.724C20.7274 26.7005 20.7499 26.6749 20.7728 26.6497C20.7821 26.6397 20.7921 26.6304 20.8007 26.62C20.8228 26.5939 20.8436 26.5662 20.864 26.5381C20.8726 26.5272 20.8815 26.5167 20.8897 26.5054C20.9094 26.4773 20.9273 26.4475 20.9451 26.4181C20.9527 26.4055 20.9612 26.3938 20.9687 26.3812C20.9855 26.3518 21.0006 26.3212 21.0156 26.2905C21.0227 26.2763 21.031 26.2628 21.0378 26.2481C21.0521 26.2171 21.0642 26.1848 21.0767 26.1525C21.0828 26.1374 21.09 26.1227 21.0953 26.1071C21.1068 26.0757 21.1161 26.0429 21.1257 26.0106C21.1307 25.9934 21.1372 25.9766 21.1418 25.9586C21.1497 25.9279 21.1558 25.8956 21.1626 25.8642C21.1665 25.844 21.1719 25.8243 21.1754 25.8042C21.1808 25.7731 21.184 25.7408 21.1879 25.7093C21.1904 25.6875 21.1944 25.6661 21.1962 25.6438C21.199 25.6145 21.199 25.5843 21.2001 25.554C21.2012 25.5293 21.2033 25.5049 21.2033 25.4793V12.1629C21.2927 11.2628 21.9439 10.5498 22.7324 10.5339C23.1375 10.5259 23.5287 10.713 23.8309 11.0618C24.147 11.426 24.3283 11.9296 24.3283 12.4429V31.4862L24.329 31.5584C24.3365 32.6038 24.9215 33.4871 25.7844 33.7566C26.6415 34.0239 27.5172 33.6013 27.9678 32.6957L27.9764 32.6776C29.0541 30.4677 31.9348 27.0039 32.7759 26.2779C32.8731 26.1936 32.9851 26.126 33.1084 26.0757C33.6563 25.8537 34.3432 26.011 34.8188 26.4676C35.0426 26.6829 35.2983 27.0438 35.2418 27.5403Z" fill="#F48C06"/>
</g>
</g>
</svg>
