<svg width="109" height="18" viewBox="0 0 109 18" fill="none" xmlns="http://www.w3.org/2000/svg">
<path d="M0.137784 14V0.909091H2.90554V11.718H8.51776V14H0.137784ZM10.4995 14V4.18182H13.2225V14H10.4995ZM11.8674 2.91619C11.4626 2.91619 11.1153 2.78196 10.8255 2.51349C10.54 2.24077 10.3973 1.91477 10.3973 1.53551C10.3973 1.16051 10.54 0.838778 10.8255 0.570312C11.1153 0.297585 11.4626 0.161221 11.8674 0.161221C12.2723 0.161221 12.6174 0.297585 12.9029 0.570312C13.1927 0.838778 13.3376 1.16051 13.3376 1.53551C13.3376 1.91477 13.1927 2.24077 12.9029 2.51349C12.6174 2.78196 12.2723 2.91619 11.8674 2.91619ZM18.0712 11.1747L18.0776 7.90838H18.4739L21.6187 4.18182H24.7445L20.5193 9.11648H19.8737L18.0712 11.1747ZM15.6038 14V0.909091H18.3268V14H15.6038ZM21.7402 14L18.851 9.72372L20.6663 7.79972L24.9298 14H21.7402ZM30.3505 14.1918C29.3406 14.1918 28.4713 13.9872 27.7426 13.5781C27.0181 13.1648 26.4599 12.581 26.0679 11.8267C25.6758 11.0682 25.4798 10.1712 25.4798 9.13565C25.4798 8.12571 25.6758 7.23935 26.0679 6.47656C26.4599 5.71378 27.0118 5.11932 27.7234 4.69318C28.4393 4.26705 29.2788 4.05398 30.2419 4.05398C30.8896 4.05398 31.4926 4.15838 32.0508 4.36719C32.6133 4.57173 33.1034 4.88068 33.521 5.29403C33.9429 5.70739 34.271 6.22727 34.5054 6.85369C34.7397 7.47585 34.8569 8.20455 34.8569 9.03977V9.78764H26.5664V8.10014H32.2937C32.2937 7.7081 32.2085 7.3608 32.038 7.05824C31.8676 6.75568 31.6311 6.51918 31.3285 6.34872C31.0302 6.17401 30.6829 6.08665 30.2866 6.08665C29.8733 6.08665 29.5068 6.18253 29.1872 6.37429C28.8718 6.56179 28.6247 6.81534 28.4457 7.13494C28.2667 7.45028 28.1751 7.80185 28.1708 8.18963V9.79403C28.1708 10.2798 28.2603 10.6996 28.4393 11.0533C28.6226 11.407 28.8804 11.6797 29.2127 11.8714C29.5451 12.0632 29.9393 12.1591 30.3953 12.1591C30.6978 12.1591 30.9748 12.1165 31.2262 12.0312C31.4777 11.946 31.6929 11.8182 31.8718 11.6477C32.0508 11.4773 32.1872 11.2685 32.2809 11.0213L34.7994 11.1875C34.6716 11.7926 34.4095 12.321 34.0132 12.7727C33.6211 13.2202 33.114 13.5696 32.4919 13.821C31.874 14.0682 31.1602 14.1918 30.3505 14.1918ZM43.9996 14.1854C43.3732 14.1854 42.815 14.0767 42.3249 13.8594C41.8349 13.6378 41.4471 13.3118 41.1616 12.8814C40.8803 12.4467 40.7397 11.9055 40.7397 11.2578C40.7397 10.7124 40.8398 10.2543 41.0401 9.88352C41.2404 9.51278 41.5131 9.21449 41.8583 8.98864C42.2035 8.76278 42.5955 8.59233 43.0344 8.47727C43.4776 8.36222 43.9421 8.28125 44.4279 8.23438C44.9989 8.17472 45.4592 8.11932 45.8086 8.06818C46.158 8.01278 46.4116 7.93182 46.5692 7.82528C46.7269 7.71875 46.8058 7.56108 46.8058 7.35227V7.31392C46.8058 6.90909 46.6779 6.59588 46.4222 6.37429C46.1708 6.1527 45.8129 6.0419 45.3484 6.0419C44.8583 6.0419 44.4684 6.15057 44.1786 6.3679C43.8888 6.58097 43.6971 6.84943 43.6033 7.1733L41.0849 6.96875C41.2127 6.37216 41.4641 5.85653 41.8391 5.42188C42.2141 4.98295 42.6978 4.64631 43.2901 4.41193C43.8867 4.1733 44.5771 4.05398 45.3612 4.05398C45.9066 4.05398 46.4286 4.1179 46.9272 4.24574C47.43 4.37358 47.8754 4.57173 48.2631 4.8402C48.6552 5.10866 48.9641 5.45384 49.19 5.87571C49.4158 6.29332 49.5288 6.79403 49.5288 7.37784V14H46.9464V12.6385H46.8697C46.712 12.9453 46.5011 13.2159 46.2369 13.4503C45.9727 13.6804 45.6552 13.8615 45.2844 13.9936C44.9137 14.1214 44.4854 14.1854 43.9996 14.1854ZM44.7795 12.3061C45.18 12.3061 45.5337 12.2273 45.8406 12.0696C46.1474 11.9077 46.3881 11.6903 46.5629 11.4176C46.7376 11.1449 46.8249 10.8359 46.8249 10.4908V9.44886C46.7397 9.50426 46.6225 9.5554 46.4734 9.60227C46.3285 9.64489 46.1644 9.68537 45.9812 9.72372C45.7979 9.75781 45.6147 9.78977 45.4315 9.8196C45.2482 9.84517 45.082 9.86861 44.9329 9.88991C44.6133 9.93679 44.3342 10.0114 44.0955 10.1136C43.8569 10.2159 43.6715 10.3544 43.5394 10.5291C43.4073 10.6996 43.3413 10.9126 43.3413 11.1683C43.3413 11.5391 43.4755 11.8224 43.744 12.0185C44.0167 12.2102 44.3619 12.3061 44.7795 12.3061ZM56.2074 17.6818V4.18182H58.892V5.83097H59.0135C59.1328 5.56676 59.3054 5.2983 59.5312 5.02557C59.7613 4.74858 60.0596 4.51847 60.4261 4.33523C60.7968 4.14773 61.2571 4.05398 61.8068 4.05398C62.5227 4.05398 63.1832 4.24148 63.7883 4.61648C64.3934 4.98722 64.8771 5.54759 65.2393 6.29759C65.6015 7.04332 65.7826 7.97869 65.7826 9.10369C65.7826 10.1989 65.6058 11.1236 65.2521 11.8778C64.9027 12.6278 64.4254 13.1967 63.8203 13.5845C63.2194 13.968 62.5461 14.1598 61.8004 14.1598C61.272 14.1598 60.8224 14.0724 60.4517 13.8977C60.0852 13.723 59.7848 13.5036 59.5504 13.2393C59.316 12.9709 59.137 12.7003 59.0135 12.4276H58.9304V17.6818H56.2074ZM58.8728 9.09091C58.8728 9.67472 58.9538 10.1839 59.1157 10.6186C59.2777 11.0533 59.512 11.392 59.8189 11.6349C60.1257 11.8736 60.4985 11.9929 60.9375 11.9929C61.3806 11.9929 61.7556 11.8714 62.0625 11.6286C62.3693 11.3814 62.6015 11.0405 62.7592 10.6058C62.9211 10.1669 63.0021 9.66193 63.0021 9.09091C63.0021 8.52415 62.9233 8.02557 62.7656 7.59517C62.6079 7.16477 62.3757 6.82812 62.0689 6.58523C61.762 6.34233 61.3849 6.22088 60.9375 6.22088C60.4943 6.22088 60.1193 6.33807 59.8125 6.57244C59.5099 6.80682 59.2777 7.1392 59.1157 7.5696C58.9538 8 58.8728 8.5071 58.8728 9.09091ZM74.0941 9.8196V4.18182H76.8172V14H74.2028V12.2166H74.1005C73.8789 12.7919 73.5103 13.2543 72.9947 13.6037C72.4833 13.9531 71.8591 14.1278 71.1218 14.1278C70.4656 14.1278 69.8882 13.9787 69.3896 13.6804C68.891 13.3821 68.5011 12.9581 68.2198 12.4084C67.9429 11.8587 67.8022 11.2003 67.798 10.4332V4.18182H70.521V9.94744C70.5252 10.527 70.6808 10.9851 70.9876 11.3217C71.2944 11.6584 71.7056 11.8267 72.2213 11.8267C72.5494 11.8267 72.8562 11.7521 73.1417 11.603C73.4272 11.4496 73.6573 11.2237 73.8321 10.9254C74.011 10.6271 74.0984 10.2585 74.0941 9.8196ZM87.3643 6.98153L84.8714 7.13494C84.8288 6.92187 84.7371 6.73011 84.5965 6.55966C84.4559 6.38494 84.2705 6.24645 84.0404 6.14418C83.8146 6.03764 83.544 5.98438 83.2286 5.98438C82.8068 5.98438 82.4509 6.07386 82.1612 6.25284C81.8714 6.42756 81.7265 6.66193 81.7265 6.95597C81.7265 7.19034 81.8202 7.38849 82.0077 7.55043C82.1952 7.71236 82.517 7.84233 82.9729 7.94034L84.7499 8.2983C85.7045 8.49432 86.4161 8.80966 86.8849 9.24432C87.3536 9.67898 87.588 10.25 87.588 10.9574C87.588 11.6009 87.3984 12.1655 87.0191 12.6513C86.6441 13.1371 86.1285 13.5163 85.4722 13.7891C84.8202 14.0575 84.0681 14.1918 83.2158 14.1918C81.9161 14.1918 80.8806 13.9212 80.1093 13.38C79.3423 12.8345 78.8927 12.093 78.7606 11.1555L81.4389 11.0149C81.5198 11.4112 81.7158 11.7138 82.0269 11.9226C82.338 12.1271 82.7364 12.2294 83.2222 12.2294C83.6995 12.2294 84.083 12.1378 84.3728 11.9545C84.6668 11.767 84.816 11.5263 84.8202 11.2322C84.816 10.9851 84.7116 10.7827 84.507 10.625C84.3025 10.4631 83.9871 10.3395 83.561 10.2543L81.8607 9.91548C80.9019 9.72372 80.1881 9.39134 79.7194 8.91832C79.2549 8.44531 79.0227 7.84233 79.0227 7.10938C79.0227 6.47869 79.1931 5.93537 79.534 5.4794C79.8792 5.02344 80.3629 4.67188 80.985 4.42472C81.6114 4.17756 82.3444 4.05398 83.1839 4.05398C84.4239 4.05398 85.3998 4.31605 86.1114 4.8402C86.8273 5.36435 87.245 6.07812 87.3643 6.98153ZM97.6717 6.98153L95.1788 7.13494C95.1362 6.92187 95.0446 6.73011 94.9039 6.55966C94.7633 6.38494 94.5779 6.24645 94.3478 6.14418C94.122 6.03764 93.8514 5.98438 93.536 5.98438C93.1142 5.98438 92.7583 6.07386 92.4686 6.25284C92.1788 6.42756 92.0339 6.66193 92.0339 6.95597C92.0339 7.19034 92.1277 7.38849 92.3152 7.55043C92.5027 7.71236 92.8244 7.84233 93.2804 7.94034L95.0574 8.2983C96.0119 8.49432 96.7235 8.80966 97.1923 9.24432C97.661 9.67898 97.8954 10.25 97.8954 10.9574C97.8954 11.6009 97.7058 12.1655 97.3265 12.6513C96.9515 13.1371 96.4359 13.5163 95.7797 13.7891C95.1277 14.0575 94.3755 14.1918 93.5233 14.1918C92.2235 14.1918 91.188 13.9212 90.4167 13.38C89.6497 12.8345 89.2001 12.093 89.068 11.1555L91.7463 11.0149C91.8272 11.4112 92.0233 11.7138 92.3343 11.9226C92.6454 12.1271 93.0439 12.2294 93.5297 12.2294C94.0069 12.2294 94.3904 12.1378 94.6802 11.9545C94.9743 11.767 95.1234 11.5263 95.1277 11.2322C95.1234 10.9851 95.019 10.7827 94.8145 10.625C94.6099 10.4631 94.2946 10.3395 93.8684 10.2543L92.1681 9.91548C91.2093 9.72372 90.4956 9.39134 90.0268 8.91832C89.5623 8.44531 89.3301 7.84233 89.3301 7.10938C89.3301 6.47869 89.5005 5.93537 89.8414 5.4794C90.1866 5.02344 90.6703 4.67188 91.2924 4.42472C91.9189 4.17756 92.6518 4.05398 93.4913 4.05398C94.7314 4.05398 95.7072 4.31605 96.4189 4.8402C97.1348 5.36435 97.5524 6.07812 97.6717 6.98153ZM101.491 17.6818C101.146 17.6818 100.822 17.6541 100.52 17.5987C100.221 17.5476 99.9741 17.4815 99.7781 17.4006L100.392 15.3679C100.711 15.4659 100.999 15.5192 101.255 15.5277C101.515 15.5362 101.738 15.4766 101.926 15.3487C102.118 15.2209 102.273 15.0036 102.392 14.6967L102.552 14.2812L99.0303 4.18182H101.894L103.927 11.392H104.029L106.081 4.18182H108.963L105.147 15.0611C104.964 15.5895 104.715 16.0497 104.4 16.4418C104.088 16.8381 103.694 17.1428 103.217 17.3558C102.74 17.5732 102.164 17.6818 101.491 17.6818Z" fill="#49BBBD"/>
</svg>
