<svg width="31" height="31" viewBox="0 0 31 31" fill="none" xmlns="http://www.w3.org/2000/svg">
<path d="M10.7852 18.9141C8.38281 19.0312 6.27344 19.9688 5.04297 23.1328C4.92578 23.4844 4.57422 23.7188 4.22266 23.7188C3.57812 23.7188 1.52734 22.0781 0.941406 21.7266C1 26.5312 3.16797 30.75 8.5 30.75C12.8945 30.75 16 28.2305 16 23.7188C16 23.543 15.9414 23.3672 15.9414 23.1914L10.7852 18.9141ZM27.7773 0.75C26.8984 0.75 26.0781 1.16016 25.4336 1.74609C13.4805 12.4688 12.25 12.7031 12.25 15.8672C12.25 16.6289 12.4258 17.3906 12.7188 18.0938L16.4688 21.1992C16.8789 21.3164 17.3477 21.375 17.7578 21.375C21.4492 21.375 23.5586 18.7383 30.1797 6.375C30.5898 5.55469 31 4.61719 31 3.67969C31 1.98047 29.4766 0.75 27.7773 0.75Z" fill="#49BBBD"/>
</svg>
